<svg width="160" height="160" viewBox="0 0 160 160" fill="none" xmlns="http://www.w3.org/2000/svg">
<g id="healthicons:agriculture-worker-alt">
<g id="Group">
<path id="Vector" d="M64.9999 43.3333C63.4678 43.3333 61.9507 43.0316 60.5353 42.4453C59.1198 41.859 57.8337 40.9996 56.7503 39.9162C55.667 38.8329 54.8076 37.5468 54.2213 36.1313C53.635 34.7158 53.3333 33.1988 53.3333 31.6667C53.3333 30.1346 53.635 28.6175 54.2213 27.202C54.8076 25.7866 55.667 24.5004 56.7503 23.4171C57.8337 22.3337 59.1198 21.4744 60.5353 20.8881C61.9507 20.3018 63.4678 20 64.9999 20C68.0941 20 71.0616 21.2292 73.2495 23.4171C75.4374 25.605 76.6666 28.5725 76.6666 31.6667C76.6666 34.7609 75.4374 37.7283 73.2495 39.9162C71.0616 42.1042 68.0941 43.3333 64.9999 43.3333Z" fill="#F8B864"/>
<path id="Vector_2" fill-rule="evenodd" clip-rule="evenodd" d="M106.667 53.3333C107.88 53.3333 109.02 53.6567 110 54.2267V50H106.667C104.014 50 101.471 48.9464 99.5956 47.0711C97.7202 45.1957 96.6666 42.6522 96.6666 40V20H103.333V40C103.333 40.8841 103.684 41.7319 104.31 42.357C104.935 42.9821 105.783 43.3333 106.667 43.3333H110V20H116.667V43.3333H120C120.884 43.3333 121.732 42.9821 122.357 42.357C122.982 41.7319 123.333 40.8841 123.333 40V20H130V40C130 42.6522 128.946 45.1957 127.071 47.0711C125.196 48.9464 122.652 50 120 50H116.667V136.667C116.667 137.551 116.315 138.399 115.69 139.024C115.065 139.649 114.217 140 113.333 140C112.449 140 111.601 139.649 110.976 139.024C110.351 138.399 110 137.551 110 136.667V65.7733C108.987 66.36 107.837 66.6682 106.667 66.6667H83.3333V133.333C83.3333 135.101 82.6309 136.797 81.3807 138.047C80.1304 139.298 78.4347 140 76.6666 140C74.8985 140 73.2028 139.298 71.9526 138.047C70.7023 136.797 70 135.101 70 133.333V103.333H60V133.333C60 135.101 59.2976 136.797 58.0473 138.047C56.7971 139.298 55.1014 140 53.3333 140C51.5652 140 49.8695 139.298 48.6192 138.047C47.369 136.797 46.6666 135.101 46.6666 133.333V93.0567C41.7331 92.2075 37.2971 89.5397 34.2344 85.5797C31.1718 81.6198 29.705 76.6555 30.1236 71.667C30.5422 66.6784 32.8158 62.028 36.4956 58.6338C40.1753 55.2397 44.9939 53.3484 50 53.3333H106.667ZM40 73.3333C40 71.5652 40.7023 69.8695 41.9526 68.6193C43.2028 67.369 44.8985 66.6667 46.6666 66.6667V80C44.8985 80 43.2028 79.2976 41.9526 78.0474C40.7023 76.7971 40 75.1014 40 73.3333Z" fill="#F8B864"/>
</g>
</g>
</svg>
