<svg width="86" height="86" viewBox="0 0 86 86" fill="none" xmlns="http://www.w3.org/2000/svg">
<path d="M52 27C51.4696 27 50.9609 26.7893 50.5858 26.4142C50.2107 26.0391 50 25.5304 50 25C50 24.4696 50.2107 23.9609 50.5858 23.5858C50.9609 23.2107 51.4696 23 52 23H60C60.5304 23 61.0391 23.2107 61.4142 23.5858C61.7893 23.9609 62 24.4696 62 25V33C62 33.5304 61.7893 34.0391 61.4142 34.4142C61.0391 34.7893 60.5304 35 60 35C59.4696 35 58.9609 34.7893 58.5858 34.4142C58.2107 34.0391 58 33.5304 58 33V29.828L46.414 41.414C46.0389 41.7889 45.5303 41.9996 45 41.9996C44.4697 41.9996 43.9611 41.7889 43.586 41.414L38 35.828L27.414 46.414C27.0368 46.7783 26.5316 46.9799 26.0072 46.9753C25.4828 46.9708 24.9812 46.7605 24.6104 46.3896C24.2395 46.0188 24.0292 45.5172 24.0247 44.9928C24.0201 44.4684 24.2217 43.9632 24.586 43.586L36.586 31.586C36.9611 31.2111 37.4697 31.0004 38 31.0004C38.5303 31.0004 39.0389 31.2111 39.414 31.586L45 37.172L55.172 27H52ZM28 55V61C28 61.5304 27.7893 62.0391 27.4142 62.4142C27.0391 62.7893 26.5304 63 26 63C25.4696 63 24.9609 62.7893 24.5858 62.4142C24.2107 62.0391 24 61.5304 24 61V55C24 54.4696 24.2107 53.9609 24.5858 53.5858C24.9609 53.2107 25.4696 53 26 53C26.5304 53 27.0391 53.2107 27.4142 53.5858C27.7893 53.9609 28 54.4696 28 55ZM38 47C38 46.4696 37.7893 45.9609 37.4142 45.5858C37.0391 45.2107 36.5304 45 36 45C35.4696 45 34.9609 45.2107 34.5858 45.5858C34.2107 45.9609 34 46.4696 34 47V61C34 61.5304 34.2107 62.0391 34.5858 62.4142C34.9609 62.7893 35.4696 63 36 63C36.5304 63 37.0391 62.7893 37.4142 62.4142C37.7893 62.0391 38 61.5304 38 61V47ZM46 49C46.5304 49 47.0391 49.2107 47.4142 49.5858C47.7893 49.9609 48 50.4696 48 51V61C48 61.5304 47.7893 62.0391 47.4142 62.4142C47.0391 62.7893 46.5304 63 46 63C45.4696 63 44.9609 62.7893 44.5858 62.4142C44.2107 62.0391 44 61.5304 44 61V51C44 50.4696 44.2107 49.9609 44.5858 49.5858C44.9609 49.2107 45.4696 49 46 49ZM58 41C58 40.4696 57.7893 39.9609 57.4142 39.5858C57.0391 39.2107 56.5304 39 56 39C55.4696 39 54.9609 39.2107 54.5858 39.5858C54.2107 39.9609 54 40.4696 54 41V61C54 61.5304 54.2107 62.0391 54.5858 62.4142C54.9609 62.7893 55.4696 63 56 63C56.5304 63 57.0391 62.7893 57.4142 62.4142C57.7893 62.0391 58 61.5304 58 61V41Z" fill="#F8B864"/>
<path fill-rule="evenodd" clip-rule="evenodd" d="M43 86C66.7482 86 86 66.7482 86 43C86 19.2518 66.7482 0 43 0C19.2518 0 0 19.2518 0 43C0 66.7482 19.2518 86 43 86ZM42.5612 81.6122C64.1285 81.6122 81.6122 64.1285 81.6122 42.5612C81.6122 20.9939 64.1285 3.5102 42.5612 3.5102C20.9939 3.5102 3.5102 20.9939 3.5102 42.5612C3.5102 64.1285 20.9939 81.6122 42.5612 81.6122Z" fill="#F8B864"/>
</svg>
