<svg width="75" height="76" viewBox="0 0 75 76" fill="none" xmlns="http://www.w3.org/2000/svg">
<g id="simple-line-icons:graph" clip-path="url(#clip0_6_380)">
<path id="Vector" d="M68.3903 16.85C65.1969 16.8847 62.6375 19.5014 62.6722 22.6937C62.6793 23.3492 62.8189 23.9663 63.0253 24.5515L49.0654 36.8385C48.0683 36.0619 46.8293 35.585 45.4673 35.5998C43.8962 35.6169 42.4821 36.2636 41.4525 37.2923L30.3544 31.8855C30.1069 28.8898 27.6081 26.543 24.5557 26.5762C21.3636 26.6108 18.8029 29.2276 18.8375 32.4198C18.847 33.2939 19.064 34.1113 19.4189 34.8498L8.30543 47.9489C7.6716 47.7199 6.99595 47.5804 6.28259 47.5881C3.09037 47.6228 0.529763 50.2395 0.564397 53.4318C0.59903 56.624 3.21581 59.1846 6.40803 59.15C9.60024 59.1153 12.1608 56.4985 12.1262 53.3063C12.1179 52.5375 11.9527 51.8074 11.6726 51.1397L22.9669 37.8698C23.5133 38.0327 24.0811 38.1445 24.6811 38.138C26.3634 38.1197 27.8561 37.3727 28.9004 36.2132L39.7556 41.5093C39.8281 44.6699 42.4225 47.196 45.5928 47.1616C48.7862 47.127 51.3456 44.5102 51.311 41.318C51.3098 41.2151 51.2845 41.1194 51.2776 41.0177L66.1748 27.9366C66.8939 28.2456 67.682 28.4209 68.5157 28.4119C71.7092 28.3772 74.2685 25.7616 74.2339 22.5682C74.1993 19.376 71.5837 16.8154 68.3903 16.85Z" fill="black"/>
</g>
<defs>
<clipPath id="clip0_6_380">
<rect width="74" height="74" fill="white" transform="translate(0 1.40356) rotate(-0.621599)"/>
</clipPath>
</defs>
</svg>
