<svg width="160" height="160" viewBox="0 0 160 160" fill="none" xmlns="http://www.w3.org/2000/svg">
<g id="mdi:construction">
<path id="Vector" d="M80.0001 100C50.5334 100 26.6667 111.933 26.6667 126.667V140H133.333V126.667C133.333 111.933 109.467 100 80.0001 100ZM53.3334 60C53.3334 67.0725 56.1429 73.8553 61.1439 78.8562C66.1449 83.8572 72.9276 86.6667 80.0001 86.6667C87.0725 86.6667 93.8553 83.8572 98.8563 78.8562C103.857 73.8553 106.667 67.0725 106.667 60M76.6667 13.3334C74.6667 13.3334 73.3334 14.7334 73.3334 16.6667V36.6667H66.6667V20C66.6667 20 51.6667 25.7334 51.6667 45C51.6667 45 46.6667 45.9334 46.6667 53.3334H113.333C113 45.9334 108.333 45 108.333 45C108.333 25.7334 93.3334 20 93.3334 20V36.6667H86.6667V16.6667C86.6667 14.7334 85.4001 13.3334 83.3334 13.3334H76.6667Z" fill="#F8B864"/>
</g>
</svg>
