<svg width="41" height="36" viewBox="0 0 41 36" fill="none" xmlns="http://www.w3.org/2000/svg">
<g clip-path="url(#clip0_6_466)">
<path d="M31.952 20.04L24.5 26H14.5V24H22.63C22.8109 23.9999 22.9884 23.9508 23.1435 23.8578C23.2987 23.7648 23.4257 23.6315 23.5111 23.472C23.5965 23.3125 23.637 23.1329 23.6283 22.9522C23.6197 22.7715 23.5622 22.5966 23.462 22.446L21.686 19.782C21.3217 19.2336 20.8273 18.7839 20.247 18.473C19.6666 18.1621 19.0184 17.9996 18.36 18H2.5C1.96957 18 1.46086 18.2107 1.08579 18.5858C0.710714 18.9609 0.5 19.4696 0.5 20V32C0.5 33.0609 0.921427 34.0783 1.67157 34.8284C2.42172 35.5786 3.43913 36 4.5 36H23.778C24.6332 36.0002 25.4786 35.8176 26.2575 35.4644C27.0363 35.1111 27.7307 34.5955 28.294 33.952L40.5 20L37.596 19.032C36.6459 18.7153 35.6316 18.6416 34.6457 18.8177C33.6598 18.9938 32.7337 19.414 31.952 20.04ZM35.016 8.78C35.918 7.85 36.476 6.564 36.476 5.144C36.476 3.724 35.918 2.438 35.016 1.508C34.5598 1.03196 34.0122 0.652992 33.4059 0.393856C32.7997 0.134719 32.1473 0.000753274 31.488 1.28833e-07C31.488 1.28833e-07 29 -0.00600028 26.5 2.572C24 -0.00600028 21.512 1.28833e-07 21.512 1.28833e-07C20.8529 0.000838329 20.2007 0.134646 19.5945 0.393415C18.9883 0.652184 18.4405 1.0306 17.984 1.506C17.082 2.438 16.524 3.722 16.524 5.142C16.524 6.562 17.082 7.85 17.984 8.778L26.5 18L35.016 8.78Z" fill="#F8B864"/>
</g>
<defs>
<clipPath id="clip0_6_466">
<rect width="40" height="36" fill="white" transform="translate(0.5)"/>
</clipPath>
</defs>
</svg>
