<svg width="49" height="48" viewBox="0 0 49 48" fill="none" xmlns="http://www.w3.org/2000/svg">
<g clip-path="url(#clip0_6_468)">
<path d="M24.5 39C35.2719 39 44 30.2719 44 19.5C44 8.72812 35.2719 0 24.5 0C13.7281 0 5 8.72812 5 19.5C5 30.2719 13.7281 39 24.5 39ZM22.4188 9.13125V7.55625C22.4188 6.69375 23.1125 6 23.975 6H25.0156C25.8781 6 26.5719 6.69375 26.5719 7.55625V9.15C28.025 9.225 29.4313 9.72188 30.6031 10.5938C31.1281 10.9781 31.1844 11.7469 30.7156 12.1969L29.1875 13.65C28.8312 13.9969 28.2969 14.0063 27.875 13.7438C27.3687 13.425 26.8063 13.2656 26.2063 13.2656H22.5594C21.7156 13.2656 21.0312 14.0344 21.0312 14.9813C21.0312 15.75 21.5 16.4344 22.1656 16.6312L28.0062 18.3844C30.4156 19.1063 32.1031 21.4219 32.1031 24.0188C32.1031 27.2063 29.6281 29.7844 26.5625 29.8688V31.4437C26.5625 32.3062 25.8687 33 25.0062 33H23.9656C23.1031 33 22.4094 32.3062 22.4094 31.4437V29.85C20.9562 29.775 19.55 29.2781 18.3781 28.4062C17.8531 28.0219 17.7969 27.2531 18.2656 26.8031L19.7938 25.35C20.15 25.0031 20.6844 24.9937 21.1063 25.2562C21.6125 25.575 22.175 25.7344 22.775 25.7344H26.4219C27.2656 25.7344 27.95 24.9656 27.95 24.0188C27.95 23.25 27.4813 22.5656 26.8156 22.3688L20.975 20.6156C18.5656 19.8937 16.8781 17.5781 16.8781 14.9813C16.8875 11.7938 19.3531 9.21562 22.4188 9.13125ZM45.5 33H42.4531C40.6156 35.4375 38.2719 37.4719 35.6094 39H41.5906C42.0875 39 42.4906 39.3375 42.4906 39.75V41.25C42.4906 41.6625 42.0875 42 41.5906 42H7.4C6.90312 42 6.5 41.6625 6.5 41.25V39.75C6.5 39.3375 6.90312 39 7.4 39H13.3812C10.7187 37.4719 8.38438 35.4375 6.5375 33H3.5C1.84062 33 0.5 34.3406 0.5 36V45C0.5 46.6594 1.84062 48 3.5 48H45.5C47.1594 48 48.5 46.6594 48.5 45V36C48.5 34.3406 47.1594 33 45.5 33Z" fill="#F8B864"/>
</g>
<defs>
<clipPath id="clip0_6_468">
<rect width="48" height="48" fill="white" transform="translate(0.5)"/>
</clipPath>
</defs>
</svg>
