<svg width="24" height="24" viewBox="0 0 24 24" fill="none" xmlns="http://www.w3.org/2000/svg">
<g clip-path="url(#clip0_11_1189)">
<path d="M13.4959 0.00144043C14.3502 -0.00183781 15.2045 0.00674829 16.0586 0.0271961L16.2857 0.035391C16.548 0.0447566 16.8067 0.0564636 17.1193 0.0705121C18.3649 0.129047 19.2148 0.325726 19.9606 0.614891C20.7332 0.91225 21.3842 1.31497 22.0351 1.96589C22.6302 2.55078 23.0908 3.25828 23.3849 4.03921C23.6741 4.78495 23.8707 5.63605 23.9293 6.88168C23.9433 7.19309 23.955 7.45298 23.9644 7.71522L23.9714 7.94234C23.9922 8.79601 24.0012 9.64993 23.9983 10.5038L23.9995 11.3772V12.9108C24.0024 13.7651 23.9934 14.6194 23.9726 15.4735L23.9656 15.7006C23.9562 15.9628 23.9445 16.2216 23.9304 16.5342C23.8719 17.7798 23.6729 18.6297 23.3849 19.3755C23.0918 20.1572 22.6311 20.8653 22.0351 21.4499C21.4497 22.045 20.7418 22.5056 19.9606 22.7998C19.2148 23.0889 18.3649 23.2856 17.1193 23.3441C16.8067 23.3582 16.548 23.3699 16.2857 23.3793L16.0586 23.3863C15.2046 23.4071 14.3502 23.4161 13.4959 23.4132L12.6226 23.4144H11.0901C10.2358 23.4173 9.38152 23.4083 8.52746 23.3875L8.30035 23.3804C8.02243 23.3704 7.74458 23.3587 7.4668 23.3453C6.22117 23.2868 5.37124 23.0878 4.62433 22.7998C3.8431 22.5063 3.13547 22.0456 2.55101 21.4499C1.95517 20.8649 1.49412 20.157 1.20001 19.3755C0.910849 18.6297 0.71417 17.7798 0.655635 16.5342C0.642596 16.2564 0.630889 15.9785 0.620513 15.7006L0.61466 15.4735C0.593076 14.6194 0.58332 13.7651 0.585392 12.9108V10.5038C0.582125 9.64993 0.590711 8.79601 0.611148 7.94234L0.619343 7.71522C0.628708 7.45298 0.640415 7.19309 0.654464 6.88168C0.712999 5.63488 0.909678 4.78612 1.19884 4.03921C1.49313 3.2579 1.95508 2.55059 2.55218 1.96706C3.13624 1.37088 3.84342 0.909408 4.62433 0.614891C5.37124 0.325726 6.22 0.129047 7.4668 0.0705121L8.30035 0.035391L8.52746 0.0295376C9.38112 0.00796475 10.235 -0.00179218 11.089 0.00026981L13.4959 0.00144043ZM12.2925 5.85497C11.5169 5.844 10.7468 5.98729 10.0271 6.2765C9.30738 6.56572 8.65231 6.9951 8.09997 7.53968C7.54763 8.08426 7.10904 8.7332 6.80967 9.44876C6.5103 10.1643 6.35614 10.9323 6.35614 11.7079C6.35614 12.4836 6.5103 13.2515 6.80967 13.9671C7.10904 14.6826 7.54763 15.3316 8.09997 15.8762C8.65231 16.4207 9.30738 16.8501 10.0271 17.1393C10.7468 17.4285 11.5169 17.5718 12.2925 17.5609C13.8449 17.5609 15.3338 16.9442 16.4315 15.8464C17.5293 14.7487 18.146 13.2598 18.146 11.7073C18.146 10.1549 17.5293 8.66601 16.4315 7.56826C15.3338 6.47051 13.8449 5.85497 12.2925 5.85497ZM12.2925 8.19638C12.759 8.18779 13.2226 8.27224 13.6561 8.44481C14.0896 8.61739 14.4844 8.87462 14.8174 9.20149C15.1504 9.52835 15.4149 9.91829 15.5955 10.3485C15.7761 10.7788 15.8692 11.2407 15.8693 11.7073C15.8694 12.1739 15.7764 12.6359 15.596 13.0662C15.4155 13.4965 15.1511 13.8865 14.8182 14.2135C14.4854 14.5405 14.0906 14.7978 13.6572 14.9706C13.2237 15.1433 12.7602 15.2279 12.2936 15.2194C11.3622 15.2194 10.4688 14.8494 9.81018 14.1908C9.15153 13.5321 8.78151 12.6388 8.78151 11.7073C8.78151 10.7759 9.15153 9.88254 9.81018 9.22389C10.4688 8.56524 11.3622 8.19521 12.2936 8.19521L12.2925 8.19638ZM18.4387 4.09891C18.061 4.11403 17.7038 4.27469 17.4419 4.54726C17.1801 4.81982 17.0338 5.18314 17.0338 5.56112C17.0338 5.9391 17.1801 6.30242 17.4419 6.57499C17.7038 6.84755 18.061 7.00822 18.4387 7.02333C18.8268 7.02333 19.199 6.86916 19.4734 6.59472C19.7479 6.32028 19.902 5.94807 19.902 5.55995C19.902 5.17184 19.7479 4.79962 19.4734 4.52519C19.199 4.25075 18.8268 4.09657 18.4387 4.09657V4.09891Z" fill="white" fill-opacity="0.4"/>
</g>
<defs>
<clipPath id="clip0_11_1189">
<rect width="24" height="23.4149" fill="white"/>
</clipPath>
</defs>
</svg>
