<svg width="87" height="86" viewBox="0 0 87 86" fill="none" xmlns="http://www.w3.org/2000/svg">
<path d="M46.25 62.65C46.6167 62.75 47.042 62.792 47.526 62.776C48.01 62.76 48.418 62.6847 48.75 62.55L63.5 57C63.5 55.8667 63.1 54.9167 62.3 54.15C61.5 53.3833 60.5667 53 59.5 53H45.8C45.7 53 45.5833 52.9913 45.45 52.974C45.3167 52.9567 45.2167 52.932 45.15 52.9L42.2 51.85C41.9333 51.75 41.75 51.5833 41.65 51.35C41.55 51.1167 41.5333 50.8667 41.6 50.6C41.6667 50.3667 41.8333 50.1833 42.1 50.05C42.3667 49.9167 42.6333 49.9 42.9 50L45.15 50.85C45.2833 50.9167 45.392 50.9587 45.476 50.976C45.56 50.9933 45.6847 51.0013 45.85 51H51.1C51.7333 51 52.2913 50.7833 52.774 50.35C53.2567 49.9167 53.4987 49.35 53.5 48.65C53.5 48.1833 53.358 47.7333 53.074 47.3C52.79 46.8667 52.4153 46.5667 51.95 46.4L38.1 41.25C37.8667 41.1833 37.6333 41.1247 37.4 41.074C37.1667 41.0233 36.9333 40.9987 36.7 41H33.5V59.05L46.25 62.65ZM21.5 59C21.5 60.1 21.892 61.042 22.676 61.826C23.46 62.61 24.4013 63.0013 25.5 63C26.6 63 27.542 62.608 28.326 61.824C29.11 61.04 29.5013 60.0987 29.5 59V45C29.5 43.9 29.108 42.958 28.324 42.174C27.54 41.39 26.5987 40.9987 25.5 41C24.4 41 23.458 41.392 22.674 42.176C21.89 42.96 21.4987 43.9013 21.5 45V59ZM51.5 43.4C51 43.4 50.508 43.308 50.024 43.124C49.54 42.94 49.0987 42.6653 48.7 42.3L43.2 36.9C42.1667 35.9 41.292 34.792 40.576 33.576C39.86 32.36 39.5013 31.0347 39.5 29.6C39.5 27.7667 40.142 26.2087 41.426 24.926C42.71 23.6433 44.268 23.0013 46.1 23C47.1667 23 48.1667 23.2253 49.1 23.676C50.0333 24.1267 50.8333 24.7347 51.5 25.5C52.1667 24.7333 52.9667 24.1247 53.9 23.674C54.8333 23.2233 55.8333 22.9987 56.9 23C58.7333 23 60.2913 23.642 61.574 24.926C62.8567 26.21 63.4987 27.768 63.5 29.6C63.5 31.0333 63.15 32.3587 62.45 33.576C61.75 34.7933 60.8833 35.9013 59.85 36.9L54.3 42.3C53.9 42.6667 53.4587 42.942 52.976 43.126C52.4933 43.31 52.0013 43.4013 51.5 43.4Z" fill="#F8B864"/>
<path fill-rule="evenodd" clip-rule="evenodd" d="M43.5 86C67.2482 86 86.5 66.7482 86.5 43C86.5 19.2518 67.2482 0 43.5 0C19.7518 0 0.5 19.2518 0.5 43C0.5 66.7482 19.7518 86 43.5 86ZM43.0612 81.6122C64.6285 81.6122 82.1122 64.1285 82.1122 42.5612C82.1122 20.9939 64.6285 3.5102 43.0612 3.5102C21.4939 3.5102 4.0102 20.9939 4.0102 42.5612C4.0102 64.1285 21.4939 81.6122 43.0612 81.6122Z" fill="#F8B864"/>
</svg>
