<svg width="160" height="160" viewBox="0 0 160 160" fill="none" xmlns="http://www.w3.org/2000/svg">
<g id="fluent-emoji-high-contrast:mechanic">
<g id="Group">
<path id="Vector" d="M55.9001 51.4C56.6501 48.3 59.4501 46 62.8001 46C66.2501 46 69.1501 48.45 69.8001 51.75C69.8381 51.9204 69.8368 52.0973 69.7963 52.2671C69.7558 52.437 69.6771 52.5954 69.5663 52.7303C69.4555 52.8652 69.3154 52.9731 69.1566 53.0458C68.9979 53.1186 68.8246 53.1542 68.6501 53.15H68.2501C68.3501 52.75 68.4001 52.35 68.4001 51.95C68.4001 49.45 66.4001 47.4 63.8501 47.4C63.1503 47.4013 62.4601 47.5635 61.833 47.874C61.2059 48.1845 60.6585 48.6351 60.2332 49.1908C59.808 49.7466 59.5162 50.3927 59.3804 51.0792C59.2446 51.7657 59.2684 52.4742 59.4501 53.15H57.2501C56.3501 53.15 55.6501 52.25 55.9001 51.4ZM94.1501 51.4C93.4001 48.3 90.6001 46 87.2501 46C83.7501 46 80.9001 48.45 80.2501 51.75C80.1001 52.5 80.6501 53.15 81.4001 53.15H81.8001C81.701 52.7577 81.6506 52.3546 81.6501 51.95C81.6434 51.3506 81.7565 50.756 81.9828 50.2009C82.2091 49.6458 82.544 49.1416 82.9678 48.7177C83.3917 48.2939 83.8959 47.959 84.451 47.7327C85.006 47.5064 85.6007 47.3933 86.2001 47.4C86.8999 47.4013 87.59 47.5635 88.2171 47.874C88.8443 48.1845 89.3916 48.6351 89.8169 49.1908C90.2422 49.7466 90.534 50.3927 90.6698 51.0792C90.8056 51.7657 90.7817 52.4742 90.6001 53.15H92.8001C93.7001 53.15 94.3501 52.3 94.1501 51.4Z" fill="#F8B864"/>
<path id="Vector_2" d="M66.45 51.9C66.45 50.45 65.3 49.3 63.85 49.3C63.5001 49.2981 63.1533 49.3661 62.83 49.5C62.9519 49.6075 63.0382 49.7496 63.0773 49.9074C63.1165 50.0652 63.1066 50.2312 63.049 50.3832C62.9915 50.5353 62.889 50.6662 62.7551 50.7585C62.6213 50.8508 62.4626 50.9002 62.3 50.9C62.1668 50.8998 62.0357 50.8662 61.9187 50.8025C61.8017 50.7388 61.7024 50.6468 61.63 50.535C61.3969 50.9194 61.267 51.3576 61.253 51.807C61.239 52.2564 61.3413 52.7018 61.55 53.1H66.15C66.35 52.75 66.45 52.35 66.45 51.9ZM85.25 49.475C85.7437 49.2702 86.2888 49.2238 86.81 49.3422C87.3312 49.4605 87.8028 49.7379 88.1596 50.1358C88.5163 50.5338 88.7407 51.0327 88.8017 51.5637C88.8627 52.0947 88.7573 52.6315 88.5 53.1H83.9C83.6823 52.6871 83.5795 52.2234 83.6023 51.7572C83.6252 51.291 83.7729 50.8395 84.03 50.45C84.0827 50.5576 84.1588 50.652 84.2529 50.7263C84.347 50.8005 84.4565 50.8527 84.5734 50.8789C84.6903 50.9052 84.8117 50.9048 84.9284 50.8779C85.0452 50.8509 85.1544 50.7981 85.248 50.7233C85.3416 50.6485 85.4172 50.5536 85.4693 50.4456C85.5213 50.3377 85.5484 50.2194 85.5486 50.0996C85.5488 49.9798 85.522 49.8614 85.4703 49.7533C85.4187 49.6452 85.3434 49.5501 85.25 49.475ZM70.8 60.1L73.45 51.55C74.05 49.65 76.7 49.65 77.25 51.55L79.9 60.1C80.45 61.85 79.15 63.65 77.3 63.65H73.4C71.55 63.65 70.25 61.85 70.8 60.1ZM75 68.4C72.3 68.4 69.75 67.75 67.6 66.6C66.85 66.2 66.1 67.05 66.55 67.75C68.35 70.5 71.45 72.35 75 72.35C78.55 72.35 81.65 70.5 83.45 67.75C83.9 67.05 83.1 66.25 82.4 66.6C80.25 67.75 77.75 68.4 75 68.4Z" fill="#F8B864"/>
<path id="Vector_3" d="M137.485 127.535C137.5 127.685 137.505 127.835 137.5 127.99V145.55C137.5 147.367 136.778 149.109 135.494 150.394C134.209 151.678 132.467 152.4 130.65 152.4H130.62C130.403 152.466 130.177 152.5 129.95 152.5H20.0001C19.3371 152.5 18.7012 152.237 18.2323 151.768C17.7635 151.299 17.5001 150.663 17.5001 150V132.5C17.4504 121.5 20.577 110.719 26.5043 101.453C32.4317 92.1861 40.9079 84.8273 50.9151 80.26C50.6786 79.9346 50.4535 79.601 50.2401 79.26C47.6367 78.2635 45.3919 76.5093 43.7956 74.224C42.1993 71.9387 41.3248 69.2273 41.2851 66.44V62.87C39.9727 61.7349 38.9475 60.3054 38.2932 58.6983C37.6389 57.0912 37.374 55.3521 37.5203 53.6231C37.6666 51.8941 38.2198 50.2242 39.1348 48.7498C40.0499 47.2755 41.3007 46.0386 42.7851 45.14V38.895C41.9513 34.9809 41.9555 30.9345 42.7975 27.0221C43.6394 23.1096 45.3 19.4198 47.6701 16.195C50.4483 13.2416 53.8397 10.9325 57.606 9.43035C61.3723 7.92816 65.4219 7.26928 69.4701 7.50004H80.7351C84.7897 7.26506 88.8465 7.92183 92.6199 9.42409C96.3933 10.9264 99.7915 13.2376 102.575 16.195C104.97 19.4871 106.639 23.2491 107.475 27.2334C108.31 31.2176 108.291 35.3335 107.42 39.31V45.17C108.885 46.0678 110.119 47.2962 111.024 48.7568C111.929 50.2174 112.478 51.8696 112.63 53.5811C112.781 55.2925 112.529 57.0155 111.894 58.6121C111.26 60.2087 110.26 61.6344 108.975 62.775V66.44C108.971 69.052 108.221 71.6084 106.812 73.808C105.404 76.0077 103.396 77.7588 101.025 78.855C100.665 79.465 100.27 80.055 99.8501 80.63C102.4 81.88 104.85 83.305 107.185 84.91C106.375 86.43 105.795 88.06 105.465 89.755L105.425 89.725C104.875 92.515 105.018 95.3972 105.842 98.1189C106.666 100.841 108.145 103.318 110.15 105.335V122.6C111.118 121.835 112.283 121.362 113.51 121.235C113.719 121.179 113.934 121.151 114.15 121.15H117.65V105.43C117.65 104.93 117.35 104.43 116.9 104.18C115.032 103.217 113.436 101.802 112.257 100.063C111.077 98.3235 110.353 96.3164 110.15 94.225V91.975C110.331 89.9233 111.019 87.9489 112.154 86.23C113.289 84.5112 114.834 83.1021 116.65 82.13C117.6 81.63 118.8 82.33 118.8 83.43V91.23C118.8 93.28 120.4 94.93 122.45 94.98C124.55 95.03 126.25 93.28 126.25 91.18V83.43C126.25 82.33 127.45 81.68 128.4 82.18C132.3 84.28 134.95 88.43 135 93.08C135 97.83 132.35 101.98 128.4 104.08C127.95 104.33 127.65 104.83 127.65 105.33V110.755C128.775 110.396 129.969 110.307 131.135 110.496C132.301 110.684 133.406 111.145 134.36 111.84C135.315 112.536 136.092 113.446 136.629 114.498C137.166 115.55 137.447 116.714 137.45 117.895V127.165L137.485 127.535ZM99.8001 86.225C99.0437 85.8168 98.2767 85.4284 97.5001 85.06V105.4C97.5001 109.735 92.6601 112.205 89.1601 109.75L89.0601 109.675L75.4401 97.91C75.3177 97.8048 75.1615 97.7469 75.0001 97.7469C74.8386 97.7469 74.6825 97.8048 74.5601 97.91L60.9401 109.675L60.8401 109.745C60.0465 110.305 59.114 110.636 58.1448 110.701C57.1757 110.766 56.2073 110.563 55.3459 110.114C54.4844 109.666 53.7632 108.988 53.2612 108.157C52.7592 107.325 52.4959 106.371 52.5001 105.4V85.04C51.7751 85.38 51.0551 85.74 50.3501 86.11V112.95C50.3501 114.1 51.2501 115 52.4001 115H97.7501C98.9001 115 99.8001 114.1 99.8001 112.95V86.225ZM40.0001 93.285C34.4689 98.2066 30.048 104.249 27.0308 111.01C24.0136 117.771 22.4692 125.096 22.5001 132.5V147.5H40.0001V93.285ZM132.45 120.935V117.89C132.45 116.52 131.32 115.39 129.95 115.39C129.459 115.393 128.98 115.54 128.572 115.812C128.163 116.084 127.843 116.469 127.65 116.92V120.94L132.45 120.935ZM114.15 147.4H130.65C131.141 147.4 131.611 147.205 131.958 146.858C132.305 146.511 132.5 146.041 132.5 145.55V128.01C132.485 127.887 132.473 127.764 132.465 127.64C132.382 127.22 132.155 126.842 131.824 126.57C131.493 126.298 131.078 126.15 130.65 126.15H114.65C114.485 126.183 114.318 126.2 114.15 126.2C113.365 126.2 112.815 126.81 112.8 127.41V127.445C112.797 127.659 112.85 127.871 112.952 128.059C113.054 128.247 113.204 128.406 113.385 128.52C113.73 128.749 114.012 129.061 114.206 129.426C114.401 129.791 114.501 130.199 114.499 130.613C114.498 131.027 114.393 131.434 114.195 131.797C113.997 132.16 113.712 132.469 113.365 132.695C113.196 132.803 113.056 132.952 112.957 133.127C112.858 133.302 112.805 133.499 112.8 133.7C112.8 134.15 113.015 134.485 113.315 134.675C113.673 134.897 113.969 135.205 114.176 135.571C114.383 135.938 114.494 136.35 114.499 136.771C114.504 137.192 114.403 137.607 114.205 137.979C114.006 138.35 113.718 138.665 113.365 138.895C113.196 139.003 113.056 139.152 112.957 139.327C112.858 139.502 112.805 139.699 112.8 139.9C112.8 140.35 113.015 140.685 113.315 140.875C113.671 141.096 113.966 141.402 114.172 141.766C114.379 142.13 114.491 142.54 114.498 142.958C114.505 143.377 114.407 143.791 114.212 144.161C114.018 144.532 113.733 144.848 113.385 145.08C113.202 145.208 113.053 145.379 112.951 145.577C112.849 145.776 112.797 145.997 112.8 146.22C112.83 146.81 113.375 147.4 114.15 147.4ZM62.5401 85.99C60.7487 85.2943 59.0546 84.37 57.5001 83.24V105.4C57.5001 105.5 57.5251 105.55 57.5401 105.58C57.5688 105.623 57.6085 105.658 57.6551 105.68C57.7012 105.705 57.7529 105.717 57.8051 105.715C57.8398 105.714 57.874 105.706 57.9051 105.69L70.3151 94.97C68.3899 94.2129 66.677 93.0005 65.3229 91.4365C63.9688 89.8726 63.0139 88.0037 62.5401 85.99ZM44.6001 52.95C44.6001 56.18 47.2201 58.8 50.4501 58.8L52.8651 58.79L53.4401 67.545C54.0224 71.6853 56.0782 75.4768 59.2302 78.2238C62.3822 80.9708 66.4191 82.4891 70.6001 82.5H80.1001C84.2827 82.4976 88.3234 80.983 91.4771 78.2355C94.6307 75.488 96.6846 71.6929 97.2601 67.55L97.7951 58.96L99.9451 58.78C101.067 58.6856 102.137 58.2697 103.028 57.5822C103.919 56.8947 104.593 55.9648 104.969 54.904C105.344 53.8431 105.406 52.6964 105.147 51.6014C104.887 50.5063 104.317 49.5093 103.505 48.73C103.344 48.6209 103.196 48.4934 103.065 48.35C102.362 47.7953 101.541 47.4103 100.665 47.225L98.5551 46.78L98.6901 44.58C97.0227 44.9799 95.2686 44.7964 93.7201 44.06C93.6202 44.2252 93.4865 44.3674 93.3278 44.4773C93.169 44.5873 92.9889 44.6624 92.7991 44.6978C92.6093 44.7332 92.4142 44.7281 92.2265 44.6828C92.0388 44.6375 91.8628 44.5531 91.7101 44.435L92.5001 43.415L91.7101 44.43L91.7001 44.425L91.6151 44.365C91.0159 43.9704 90.3775 43.6386 89.7101 43.375C87.9644 42.6843 86.0743 42.4386 84.2101 42.66C83.8964 42.6969 83.5796 42.6243 83.3133 42.4545C83.047 42.2847 82.8476 42.028 82.7488 41.7281C82.65 41.4281 82.6578 41.1032 82.771 40.8083C82.8843 40.5135 83.0959 40.2668 83.3701 40.11C80.6216 39.5025 77.8149 39.1974 75.0001 39.2C71.9351 39.2 69.1501 39.555 66.6651 40.1C66.9436 40.2535 67.16 40.4991 67.2772 40.7947C67.3945 41.0903 67.4053 41.4174 67.3077 41.7201C67.2102 42.0227 67.0104 42.282 66.7427 42.4535C66.4749 42.625 66.1558 42.698 65.8401 42.66C63.4021 42.3724 60.9366 42.8848 58.8151 44.12C58.6858 44.1976 58.5591 44.2793 58.4351 44.365L58.3501 44.425L58.3401 44.435C58.1858 44.554 58.008 44.6386 57.8184 44.6834C57.6288 44.7281 57.4319 44.7319 57.2407 44.6946C57.0496 44.6572 56.8686 44.5795 56.7098 44.4666C56.5511 44.3537 56.4182 44.2083 56.3201 44.04C54.9201 44.715 53.3951 44.92 51.9401 44.7L52.0801 46.86L49.7301 47.145C48.9197 47.2442 48.1393 47.5135 47.4401 47.935C47.1375 48.4558 46.6587 48.8513 46.0901 49.05C45.1651 50.085 44.6001 51.45 44.6001 52.95ZM58.3401 44.435L57.5401 43.395L58.3401 44.43V44.435ZM56.2001 42.92L55.7201 42.05L56.2051 42.91V42.92H56.2001ZM70.6001 87.5C69.9001 87.5 69.2051 87.47 68.5201 87.4C69.2284 88.4573 70.185 89.3248 71.3062 89.9266C72.4275 90.5284 73.6791 90.8462 74.9517 90.8521C76.2242 90.858 77.4788 90.5519 78.6056 89.9605C79.7324 89.3692 80.697 88.5106 81.4151 87.46C80.9772 87.4862 80.5387 87.4996 80.1001 87.5H70.6001ZM79.6751 94.965L92.1001 105.69C92.1297 105.705 92.162 105.713 92.1951 105.715C92.2473 105.717 92.299 105.705 92.3451 105.68C92.3917 105.658 92.4314 105.623 92.4601 105.58C92.4908 105.525 92.5047 105.463 92.5001 105.4V83.74C90.909 84.8076 89.1863 85.6648 87.3751 86.29C86.8584 88.2369 85.8927 90.0357 84.5556 91.5422C83.2184 93.0487 81.5469 94.2209 79.6751 94.965ZM92.4901 31.28C87.0342 28.7424 81.0897 27.4276 75.0726 27.4276C69.0554 27.4276 63.111 28.7424 57.6551 31.28L57.6351 31.29C55.0827 32.4701 52.708 34.0016 50.5801 35.84L51.1401 36.54C51.9401 37.52 53.3201 37.775 54.3801 37.185L54.3901 37.18C60.7384 33.7051 67.863 31.8938 75.1001 31.915C84.5901 31.915 91.7551 34.94 95.8101 37.18H95.8201C96.3359 37.4689 96.9374 37.5656 97.5177 37.453C98.0981 37.3404 98.6197 37.0258 98.9901 36.565L99.0001 36.55L99.5701 35.845C97.4224 34.0169 95.0416 32.4818 92.4901 31.28ZM68.5001 128.7C68.5001 125.15 65.6001 122.25 62.0501 122.25H54.8001C51.2501 122.25 48.3501 125.15 48.3501 128.7C48.3501 132.25 51.2501 135.15 54.8001 135.15H62.0501C65.6501 135.15 68.5001 132.3 68.5001 128.7Z" fill="#F8B864"/>
</g>
</g>
</svg>
