<svg width="87" height="86" viewBox="0 0 87 86" fill="none" xmlns="http://www.w3.org/2000/svg">
<path d="M62.9201 36.4201C65.4201 33.9201 64.2801 31.0001 62.9201 29.5801L56.9201 23.5801C54.4001 21.0801 51.5001 22.2201 50.0801 23.5801L46.6801 27.0001H41.5001C37.7001 27.0001 35.5001 29.0001 34.3801 31.3001L25.5001 40.1801V48.1801L24.0801 49.5801C21.5801 52.1001 22.7201 55.0001 24.0801 56.4201L30.0801 62.4201C31.1601 63.5001 32.3201 63.9001 33.4201 63.9001C34.8401 63.9001 36.1401 63.2001 36.9201 62.4201L42.3201 57.0001H49.5001C52.9001 57.0001 54.6201 54.8801 55.2401 52.8001C57.5001 52.2001 58.7401 50.4801 59.2401 48.8001C62.3401 48.0001 63.5001 45.0601 63.5001 43.0001V37.0001H62.3201L62.9201 36.4201ZM59.5001 43.0001C59.5001 43.9001 59.1201 45.0001 57.5001 45.0001H55.5001V47.0001C55.5001 47.9001 55.1201 49.0001 53.5001 49.0001H51.5001V51.0001C51.5001 51.9001 51.1201 53.0001 49.5001 53.0001H40.6801L34.1201 59.5601C33.5001 60.1401 33.1401 59.8001 32.9201 59.5801L26.9401 53.6201C26.3601 53.0001 26.7001 52.6401 26.9201 52.4201L29.5001 49.8201V41.8201L33.5001 37.8201V41.0001C33.5001 43.4201 35.1001 47.0001 39.5001 47.0001C43.9001 47.0001 45.5001 43.4201 45.5001 41.0001H59.5001V43.0001ZM60.0801 33.5801L56.6801 37.0001H41.5001V41.0001C41.5001 41.9001 41.1201 43.0001 39.5001 43.0001C37.8801 43.0001 37.5001 41.9001 37.5001 41.0001V35.0001C37.5001 34.0801 37.8401 31.0001 41.5001 31.0001H48.3201L52.8801 26.4401C53.5001 25.8601 53.8601 26.2001 54.0801 26.4201L60.0601 32.3801C60.6401 33.0001 60.3001 33.3601 60.0801 33.5801Z" fill="#F8B864"/>
<path fill-rule="evenodd" clip-rule="evenodd" d="M43.5 86C67.2482 86 86.5 66.7482 86.5 43C86.5 19.2518 67.2482 0 43.5 0C19.7518 0 0.5 19.2518 0.5 43C0.5 66.7482 19.7518 86 43.5 86ZM43.0612 81.6122C64.6285 81.6122 82.1122 64.1285 82.1122 42.5612C82.1122 20.9939 64.6285 3.5102 43.0612 3.5102C21.4939 3.5102 4.0102 20.9939 4.0102 42.5612C4.0102 64.1285 21.4939 81.6122 43.0612 81.6122Z" fill="#F8B864"/>
</svg>
