<svg width="24" height="25" viewBox="0 0 24 25" fill="none" xmlns="http://www.w3.org/2000/svg">
<g clip-path="url(#clip0_11_1187)">
<path d="M3.42857 0.214355C1.5375 0.214355 0 1.75186 0 3.64293V20.7858C0 22.6769 1.5375 24.2144 3.42857 24.2144H20.5714C22.4625 24.2144 24 22.6769 24 20.7858V3.64293C24 1.75186 22.4625 0.214355 20.5714 0.214355H3.42857ZM18.8196 9.17686C18.8196 13.8215 15.2839 19.1733 8.82321 19.1733C6.83036 19.1733 4.98214 18.5947 3.42857 17.5983C3.7125 17.6304 3.98571 17.6411 4.275 17.6411C5.91964 17.6411 7.43036 17.084 8.63571 16.1411C7.09286 16.109 5.79643 15.0965 5.35179 13.7036C5.89286 13.784 6.38036 13.784 6.9375 13.6394C5.33036 13.3126 4.125 11.8983 4.125 10.1894V10.1465C4.59107 10.409 5.1375 10.5697 5.71071 10.5911C5.22857 10.2697 4.83214 9.83578 4.55893 9.32686C4.28571 8.81793 4.14107 8.24471 4.14643 7.66614C4.14643 7.01257 4.31786 6.41257 4.62321 5.89293C6.35357 8.02507 8.95179 9.41793 11.8661 9.56793C11.3679 7.184 13.1518 5.25007 15.2946 5.25007C16.3071 5.25007 17.2179 5.67328 17.8607 6.359C18.6536 6.209 19.4143 5.91436 20.0893 5.51257C19.8268 6.32686 19.275 7.01257 18.5464 7.4465C19.2536 7.3715 19.9393 7.17328 20.5714 6.90007C20.0946 7.60186 19.4946 8.22328 18.8089 8.7215C18.8196 8.8715 18.8196 9.02686 18.8196 9.17686Z" fill="white" fill-opacity="0.4"/>
</g>
<defs>
<clipPath id="clip0_11_1187">
<rect width="24" height="24.5" fill="white"/>
</clipPath>
</defs>
</svg>
