<svg width="49" height="48" viewBox="0 0 49 48" fill="none" xmlns="http://www.w3.org/2000/svg">
<path d="M32.4999 12.56C32.4997 13.7634 32.0238 14.918 31.1759 15.772C29.2239 17.74 27.3299 19.792 25.3039 21.688C25.0777 21.894 24.781 22.0054 24.4751 21.9991C24.1692 21.9927 23.8774 21.8692 23.6599 21.654L17.8239 15.774C16.9756 14.9194 16.4995 13.7641 16.4995 12.56C16.4995 11.3558 16.9756 10.2005 17.8239 9.34597C18.2472 8.91954 18.7507 8.58109 19.3054 8.35013C19.8601 8.11916 20.4551 8.00026 21.0559 8.00026C21.6568 8.00026 22.2517 8.11916 22.8064 8.35013C23.3611 8.58109 23.8646 8.91954 24.2879 9.34597L24.4999 9.55997L24.7119 9.34597C25.3473 8.7037 26.1595 8.26504 27.045 8.08582C27.9305 7.9066 28.8493 7.99494 29.6844 8.3396C30.5196 8.68425 31.2332 9.26961 31.7346 10.0212C32.236 10.7727 32.5024 11.6565 32.4999 12.56Z" stroke="#F8B864" stroke-width="1.5" stroke-linejoin="round"/>
<path d="M36.5 40L44.148 32.352C44.3731 32.1272 44.4997 31.8222 44.5 31.504V21C44.5 20.2044 44.1839 19.4413 43.6213 18.8787C43.0587 18.3161 42.2956 18 41.5 18C40.7044 18 39.9413 18.3161 39.3787 18.8787C38.8161 19.4413 38.5 20.2044 38.5 21V30" stroke="#F8B864" stroke-width="1.5" stroke-linecap="round" stroke-linejoin="round"/>
<path d="M36.5 32L38.216 30.284C38.3062 30.194 38.3776 30.087 38.4264 29.9693C38.4751 29.8516 38.5001 29.7254 38.5 29.598C38.4997 29.4182 38.4494 29.2419 38.3548 29.089C38.2601 28.9361 38.1248 28.8125 37.964 28.732L37.078 28.29C36.3274 27.9147 35.4777 27.785 34.6493 27.9192C33.8209 28.0535 33.0557 28.4449 32.462 29.038L30.672 30.828C29.9218 31.578 29.5002 32.5952 29.5 33.656V40M12.5 40L4.852 32.352C4.62689 32.1272 4.50028 31.8222 4.5 31.504V21C4.5 20.2044 4.81607 19.4413 5.37868 18.8787C5.94129 18.3161 6.70435 18 7.5 18C8.29565 18 9.05871 18.3161 9.62132 18.8787C10.1839 19.4413 10.5 20.2044 10.5 21V30" stroke="#F8B864" stroke-width="1.5" stroke-linecap="round" stroke-linejoin="round"/>
<path d="M12.5 32L10.784 30.284C10.6939 30.1939 10.6225 30.0869 10.5738 29.9692C10.525 29.8515 10.5 29.7254 10.5 29.598C10.5 29.232 10.708 28.898 11.036 28.732L11.922 28.29C12.6726 27.9147 13.5223 27.7849 14.3507 27.9192C15.1791 28.0534 15.9443 28.4448 16.538 29.038L18.328 30.828C19.0782 31.5779 19.4998 32.5952 19.5 33.656V40" stroke="#F8B864" stroke-width="1.5" stroke-linecap="round" stroke-linejoin="round"/>
</svg>
