<svg width="84" height="83" viewBox="0 0 84 83" fill="none" xmlns="http://www.w3.org/2000/svg">
<g id="bi:youtube" clip-path="url(#clip0_6_523)">
<path id="Vector" d="M42.2646 10.3699H42.7263C46.9904 10.3854 68.5963 10.5411 74.4219 12.1077C76.183 12.5858 77.7878 13.5178 79.0759 14.8104C80.364 16.1031 81.2903 17.7111 81.7622 19.4739C82.2861 21.4452 82.6544 24.0545 82.9034 26.7468L82.9553 27.2863L83.0694 28.6351L83.1109 29.1746C83.4481 33.9159 83.4896 38.3564 83.4948 39.3265V39.7156C83.4896 40.7219 83.4429 45.4633 83.0694 50.4018L83.0279 50.9465L82.9812 51.486C82.7219 54.4533 82.338 57.3998 81.7622 59.5681C81.2917 61.3316 80.3659 62.9405 79.0776 64.2333C77.7893 65.5262 76.1837 66.4577 74.4219 66.9344C68.4044 68.5529 45.5327 68.667 42.3631 68.6722H41.6265C40.0236 68.6722 33.3939 68.6411 26.4427 68.4024L25.5608 68.3713L25.1095 68.3506L24.2224 68.3143L23.3354 68.2779C17.5772 68.0238 12.0941 67.6139 9.56775 66.9292C7.80654 66.453 6.2014 65.5223 4.91313 64.2303C3.62486 62.9384 2.69871 61.3307 2.22744 59.5681C1.65163 57.4049 1.26775 54.4533 1.00837 51.486L0.966875 50.9413L0.925375 50.4018C0.669359 46.8868 0.527493 43.3643 0.5 39.8401L0.5 39.202C0.510375 38.0867 0.551875 34.2324 0.832 29.9786L0.868313 29.4443L0.883875 29.1746L0.925375 28.6351L1.0395 27.2863L1.09137 26.7468C1.34038 24.0545 1.70869 21.44 2.23263 19.4739C2.7031 17.7104 3.6289 16.1016 4.91722 14.8087C6.20554 13.5159 7.8111 12.5844 9.57294 12.1077C12.0992 11.4333 17.5824 11.0183 23.3406 10.7589L24.2224 10.7226L25.1147 10.6915L25.5608 10.6759L26.4479 10.6396C31.3849 10.4808 36.3239 10.3926 41.2634 10.3751H42.2646V10.3699ZM33.7 27.0217V52.0151L55.2644 39.5236L33.7 27.0217Z" fill="white"/>
</g>
<defs>
<clipPath id="clip0_6_523">
<rect width="83" height="83" fill="white" transform="translate(0.5)"/>
</clipPath>
</defs>
</svg>
